HIERARCHY
ROOT Hips
{
	OFFSET 0.000000 0.000000 0.000000 
	CHANNELS 6 Xposition Yposition Zposition Zrotation Yrotation Xrotation
	JOINT LeftUpLeg
	{
		OFFSET 1.363060 -1.794630 0.839290 
		CHANNELS 3 Zrotation Yrotation Xrotation
		JOINT LeftLeg
		{
			OFFSET 2.448110 -6.726130 0.000000 
			CHANNELS 3 Zrotation Yrotation Xrotation
			JOINT LeftFoot
			{
				OFFSET 2.562200 -7.039590 0.000000 
				CHANNELS 3 Zrotation Yrotation Xrotation
				JOINT LeftToeBase
				{
					OFFSET 0.157640 -0.433110 2.322550 
					CHANNELS 3 Zrotation Yrotation Xrotation
					End Site
					{
						OFFSET 0.000000 0.000000 0.000000 
					}
				}
			}
		}
	}
	JOINT RightUpLeg
	{
		OFFSET -1.305520 -1.794630 0.839290 
		CHANNELS 3 Zrotation Yrotation Xrotation
		JOINT RightLeg
		{
			OFFSET -2.542530 -6.985550 0.000000 
			CHANNELS 3 Zrotation Yrotation Xrotation
			JOINT RightFoot
			{
				OFFSET -2.568260 -7.056230 0.000000 
				CHANNELS 3 Zrotation Yrotation Xrotation
				JOINT RightToeBase
				{
					OFFSET -0.164730 -0.452590 2.363150 
					CHANNELS 3 Zrotation Yrotation Xrotation
					End Site
					{
						OFFSET 0.000000 0.000000 0.000000 
					}
				}
			}
		}
	}
	JOINT Spine
	{
		OFFSET 0.028270 2.035590 -0.193380 
		CHANNELS 3 Zrotation Yrotation Xrotation
		JOINT Spine1
		{
			OFFSET 0.056720 2.048850 -0.042750 
			CHANNELS 3 Zrotation Yrotation Xrotation
			JOINT Neck1
			{
				OFFSET -0.054170 1.746240 0.172020 
				CHANNELS 3 Zrotation Yrotation Xrotation
				JOINT Head
				{
					OFFSET 0.104070 1.761360 -0.123970 
					CHANNELS 3 Zrotation Yrotation Xrotation
					End Site
					{
						OFFSET 0.000000 0.000000 0.000000 
					}
				}
			}
			JOINT LeftArm
			{
				OFFSET 3.362410 1.200890 -0.311210 
				CHANNELS 3 Zrotation Yrotation Xrotation
				JOINT LeftForeArm
				{
					OFFSET 4.983000 -0.000000 -0.000000 
					CHANNELS 3 Zrotation Yrotation Xrotation
					JOINT LeftHand
					{
						OFFSET 3.483560 -0.000000 -0.000000 
						CHANNELS 3 Zrotation Yrotation Xrotation
						JOINT LeftHandIndex1
						{
							OFFSET 0.715260 -0.000000 -0.000000 
							CHANNELS 3 Zrotation Yrotation Xrotation
							End Site
							{
								OFFSET 0.000000 0.000000 0.000000 
							}
						}
					}
				}
			}
			JOINT RightArm
			{
				OFFSET -3.136600 1.374050 -0.404650 
				CHANNELS 3 Zrotation Yrotation Xrotation
				JOINT RightForeArm
				{
					OFFSET -5.241900 -0.000000 -0.000000 
					CHANNELS 3 Zrotation Yrotation Xrotation
					JOINT RightHand
					{
						OFFSET -3.444170 -0.000000 -0.000000 
						CHANNELS 3 Zrotation Yrotation Xrotation
						JOINT RightHandIndex1
						{
							OFFSET -0.622530 -0.000000 -0.000000 
							CHANNELS 3 Zrotation Yrotation Xrotation
							End Site
							{
								OFFSET 0.000000 0.000000 0.000000 
							}
						}
					}
				}
			}
		}
	}
}
MOTION
Frames: 16
Frame Time: 0.041667
10.407509 17.949967 3.693785 178.669496 0.063128 -160.706409 -16.194127 -21.460259 -64.058928 19.635257 25.536254 90.724329 1.264298 -5.338550 -24.018945 1.468900 -7.659000 -21.683000 35.131612 16.107169 -13.037083 0.976443 -4.249264 10.915960 -0.928925 1.373018 -18.440556 -2.380000 9.616300 -27.743000 1.702274 -0.522757 -3.537485 -0.529046 -0.892732 14.448478 9.610676 -6.018019 27.773462 1.155800 -2.115700 6.330500 -104.704451 -2.167842 15.665455 11.452653 -12.819744 -1.628525 -1.531414 1.122605 7.240252 -7.125000 0.000000 0.000000 96.575878 0.081696 12.189616 -21.901420 34.006906 -8.467971 0.278523 3.797708 -3.463109 7.125000 0.000000 0.000000 
10.408604 17.951719 3.620008 178.610518 0.137213 -160.646324 -15.713660 -21.644787 -65.239372 19.419935 25.615654 90.137840 1.330173 -5.319343 -24.465244 1.405100 -7.498100 -21.199600 35.129375 16.055672 -12.831775 0.970081 -4.240225 10.958846 -0.955836 1.475402 -18.650019 -2.353000 9.565500 -27.581000 1.664133 -0.428283 -3.520847 -0.620795 -0.838084 14.505361 9.541141 -5.685696 27.222391 1.105600 -1.947400 6.056100 -104.653813 -1.975307 14.755481 11.231736 -12.484677 -1.543714 -1.539861 1.162006 8.077817 -7.125000 0.000000 0.000000 96.532983 0.305570 12.569030 -22.104839 34.201537 -8.590965 0.273526 3.754456 -3.768175 7.125000 0.000000 0.000000 
10.411997 17.956207 3.560570 178.594984 0.306398 -160.592720 -15.191096 -21.675627 -66.424052 19.171127 25.690121 89.460140 1.416489 -5.004826 -24.798305 1.511800 -7.765100 -22.003000 35.138247 16.270964 -12.664038 0.974387 -4.239674 10.983425 -0.975033 1.373987 -18.815819 -2.391900 9.638700 -27.814600 1.647402 -0.379270 -3.529808 -0.605726 -0.823613 14.431782 9.781257 -6.041027 28.399834 1.304600 -2.128900 6.685000 -104.645666 -1.679811 13.962612 11.031331 -12.180497 -1.472395 -1.556642 1.245398 8.874672 -7.125000 0.000000 0.000000 96.369404 0.646127 12.977688 -22.180994 34.264817 -8.634404 0.278457 3.690002 -3.985194 7.125000 0.000000 0.000000 
10.409589 17.955769 3.491281 178.572157 0.420708 -160.524304 -14.771937 -21.724756 -67.353568 18.790541 25.742001 88.444459 1.470495 -4.773926 -25.015140 1.489200 -7.709500 -21.835000 35.168864 16.252797 -12.385066 0.981209 -4.160496 10.844889 -0.995622 1.408977 -18.959969 -2.502800 9.842900 -28.469600 1.610447 -0.240624 -3.511098 -0.664750 -0.741629 14.477297 9.916859 -5.842010 27.915485 1.353100 -2.031900 6.430200 -104.590839 -1.410320 13.551193 10.905979 -12.007203 -1.430934 -1.577999 1.319143 9.293306 -7.125000 0.000000 0.000000 96.299387 0.915947 13.278357 -22.330032 34.407233 -8.730988 0.284528 3.692070 -4.294127 7.125000 0.000000 0.000000 
10.403349 17.952266 3.417175 178.594367 0.472771 -160.467512 -14.372473 -21.816555 -68.110307 18.331487 25.776630 87.227004 1.518718 -4.571907 -25.233462 1.439800 -7.586100 -21.463900 35.258818 16.017465 -12.137761 0.973780 -4.109687 10.799617 -1.023794 1.681555 -19.146614 -2.530400 9.893000 -28.630900 1.586037 -0.155118 -3.475268 -0.773421 -0.687812 14.631793 9.926493 -5.853597 27.772501 1.356300 -2.038000 6.365800 -104.563698 -1.253410 13.156015 10.787349 -11.830218 -1.388641 -1.603565 1.367488 9.637508 -7.125000 0.000000 0.000000 96.248874 1.256218 13.634986 -22.448514 34.528344 -8.812302 0.298166 3.703278 -4.607537 7.125000 0.000000 0.000000 
10.402145 17.950077 3.348105 178.522558 0.534539 -160.493410 -14.095373 -21.913115 -68.768111 17.869607 25.797770 86.004953 1.572833 -4.245597 -25.394374 1.515700 -7.774700 -22.031700 35.236248 15.935047 -11.920984 0.958678 -4.144730 10.974389 -1.061769 1.785565 -19.427660 -2.493800 9.826700 -28.417400 1.555778 -0.106623 -3.446264 -0.832780 -0.667080 14.651099 9.682558 -5.891452 27.898373 1.256100 -2.058200 6.430300 -104.536135 -1.061377 12.648139 10.661808 -11.644158 -1.346720 -1.623399 1.446628 10.116376 -7.125000 0.000000 0.000000 96.178380 1.668361 14.069115 -22.534039 34.610911 -8.863262 0.229247 3.794927 -4.727235 7.125000 0.000000 0.000000 
10.405539 17.948654 3.281333 178.352102 0.708171 -160.564278 -13.981368 -21.881620 -69.350718 17.411772 25.798612 84.799561 1.611197 -3.989235 -25.510802 1.595800 -7.967900 -22.616600 35.095041 16.108091 -11.581596 0.955888 -4.150595 11.079913 -1.096474 1.608339 -19.685376 -2.441000 9.729800 -28.106100 1.492780 0.043938 -3.435813 -0.827256 -0.597224 14.511807 9.558789 -5.781735 27.380581 1.177600 -2.013500 6.149400 -104.455174 -0.811514 11.831311 10.496344 -11.406561 -1.292332 -1.600018 1.480819 10.801868 -7.125000 0.000000 0.000000 96.119590 1.878422 14.521526 -22.676416 34.744023 -8.948546 0.164359 3.874437 -4.960136 7.125000 0.000000 0.000000 
10.404663 17.947012 3.210293 178.304583 0.877208 -160.548022 -13.745799 -21.831031 -69.889244 16.872603 25.777747 83.380604 1.623262 -3.823280 -25.546206 1.607000 -7.994500 -22.697300 35.080986 16.199913 -11.301755 0.953073 -4.138279 11.120808 -1.125003 1.594289 -19.886031 -2.362800 9.584100 -27.640100 1.449316 0.159909 -3.431309 -0.871000 -0.553733 14.512978 9.610661 -6.173930 28.461991 1.240000 -2.210300 6.656300 -104.390538 -0.612751 10.919993 10.310651 -11.120145 -1.228564 -1.541537 1.427714 11.515016 -7.125000 0.000000 0.000000 96.000970 2.098784 14.913797 -22.727904 34.791621 -8.987761 0.263670 3.757292 -5.122848 7.125000 0.000000 0.000000 
10.400832 17.944494 3.138267 178.287784 0.850026 -160.500958 -13.436183 -21.984287 -70.343977 16.279765 25.738577 81.820734 1.621659 -3.787366 -25.610017 1.578900 -7.927500 -22.494000 35.130087 16.023319 -11.055988 0.941408 -4.121368 11.165540 -1.161021 1.823396 -20.116804 -2.301500 9.467700 -27.269500 1.431069 0.200915 -3.427745 -0.936484 -0.518646 14.462502 9.285455 -5.844128 27.785053 1.062700 -2.048600 6.286400 -104.358912 -0.360727 10.569383 10.207702 -10.965011 -1.194035 -1.524736 1.392274 11.654758 -7.125000 0.000000 0.000000 95.903236 2.496541 15.184941 -22.635403 34.668253 -8.917982 0.250088 3.729173 -5.010118 7.125000 0.000000 0.000000 
10.399847 17.940006 3.065803 178.239392 0.850772 -160.545764 -13.181334 -22.093214 -70.660149 15.689341 25.673844 80.267392 1.594814 -3.898088 -25.625019 1.297500 -7.216800 -20.359200 35.182505 15.854199 -10.706294 0.931867 -4.090895 11.203262 -1.201258 1.961751 -20.365430 -2.338200 9.537600 -27.492100 1.422970 0.210612 -3.417862 -0.906629 -0.513532 14.402197 9.389072 -6.020831 28.028257 1.132900 -2.137500 6.458500 -104.350504 -0.131032 10.376313 10.098615 -10.793036 -1.158883 -1.542655 1.404150 11.551174 -7.125000 0.000000 0.000000 95.819812 2.942505 15.485656 -22.558879 34.572868 -8.867692 0.271877 3.721504 -4.874404 7.125000 0.000000 0.000000 
10.397657 17.934424 2.987867 178.210018 1.046290 -160.548118 -12.967924 -21.994321 -70.875717 15.024496 25.564666 78.513636 1.523024 -4.126996 -25.451527 0.887900 -6.006200 -16.802600 35.207615 15.916998 -10.547222 0.914374 -4.183997 11.498508 -1.244187 1.949957 -20.684614 -2.449900 9.746300 -28.159000 1.390947 0.381840 -3.368719 -0.871789 -0.438601 14.549964 9.592393 -5.818710 27.738507 1.228200 -2.030300 6.336700 -104.294582 -0.157670 9.779594 9.925528 -10.522307 -1.104135 -1.534991 1.438068 12.076168 -7.125000 0.000000 0.000000 95.802811 3.305992 15.720636 -22.682569 34.682909 -8.944137 0.287882 3.722825 -4.781463 7.125000 0.000000 0.000000 
10.393060 17.930155 2.914308 178.076951 1.215040 -160.471158 -12.893840 -21.981731 -71.103956 14.360013 25.437067 76.756496 1.429181 -4.372542 -25.148803 0.859700 -5.912500 -16.530900 35.046586 16.092244 -10.426741 0.892972 -4.287484 11.814229 -1.301193 1.999367 -21.108136 -2.378300 9.613100 -27.732800 1.331672 0.550930 -3.331514 -0.898228 -0.382011 14.712912 9.649509 -6.114611 28.310410 1.269300 -2.167800 6.651700 -104.250878 -0.188872 8.748385 9.805911 -10.353170 -1.066318 -1.486314 1.450107 13.055117 -7.125000 0.000000 0.000000 95.862136 3.641367 15.946912 -22.910486 34.909664 -9.086422 0.276441 3.727270 -4.812749 7.125000 0.000000 0.000000 
10.390542 17.928294 2.845128 177.866609 1.244377 -160.456200 -12.938467 -22.119459 -71.275611 13.804570 25.326405 75.279963 1.402336 -4.148294 -24.878856 1.377600 -7.427300 -20.987600 34.814222 16.031847 -10.057799 0.894749 -4.217567 11.751758 -1.346225 1.910434 -21.390063 -2.208800 9.288100 -26.700700 1.278302 0.665801 -3.313760 -0.905546 -0.339223 14.671490 9.342469 -5.918033 28.003634 1.117900 -2.071900 6.468500 -104.213132 -0.140061 8.063631 9.741842 -10.266648 -1.045186 -1.447852 1.422692 13.524969 -7.125000 0.000000 0.000000 95.840526 3.880199 16.225207 -23.000428 34.985305 -9.138348 0.269505 3.726945 -4.770849 7.125000 0.000000 0.000000 
10.387149 17.925995 2.770913 177.788845 1.287420 -160.489956 -12.886525 -22.204199 -71.319271 13.248606 25.197933 73.791738 1.399390 -3.768378 -24.633474 1.955300 -8.772300 -25.085700 34.767343 15.789620 -9.701012 0.898508 -4.148378 11.692924 -1.367899 1.715467 -21.503973 -2.164400 9.200400 -26.424400 1.230491 0.787295 -3.285165 -0.936860 -0.280458 14.691860 9.393615 -6.023034 27.939333 1.121600 -2.122400 6.422400 -104.115284 -0.009263 8.087012 9.714995 -10.232023 -1.037707 -1.446738 1.412679 13.445321 -7.125000 0.000000 0.000000 95.807772 4.105694 16.557394 -23.046979 35.024017 -9.163951 0.271956 3.717839 -4.653298 7.125000 0.000000 0.000000 
10.378830 17.919865 2.691335 177.804788 1.414749 -160.516735 -12.750433 -22.207640 -71.262488 12.631188 25.021044 72.127057 1.325632 -3.852781 -24.306633 1.828800 -8.499900 -24.243200 34.806958 15.623036 -9.420194 0.882861 -4.130281 11.744429 -1.398623 1.965212 -21.645215 -2.181400 9.234000 -26.530200 1.194487 0.871340 -3.274117 -1.043293 -0.227096 14.657718 9.276093 -5.911849 27.928044 1.082200 -2.071600 6.402300 -104.095245 0.303501 8.081452 9.729268 -10.268974 -1.042729 -1.444428 1.397829 13.274964 -7.125000 0.000000 0.000000 95.803837 4.200645 17.118132 -23.277481 35.255643 -9.308390 0.267759 3.705707 -4.781099 7.125000 0.000000 0.000000 
10.373466 17.910890 2.611975 177.711833 1.557105 -160.532581 -12.748970 -22.196907 -71.195077 12.063525 24.837354 70.585832 1.228602 -4.004462 -23.859535 1.851400 -8.549500 -24.395900 34.715626 15.558145 -9.023170 0.876759 -4.025404 11.591289 -1.421700 2.272570 -21.701846 -2.062600 8.995300 -25.780800 1.171757 0.909176 -3.280619 -1.023331 -0.218821 14.581441 9.357847 -6.167569 28.643165 1.165000 -2.206400 6.767000 -104.114863 0.493706 7.466255 9.634713 -10.131814 -1.014620 -1.423625 1.406892 13.519374 -7.125000 0.000000 0.000000 95.691136 4.282420 17.851220 -23.494463 35.476324 -9.445795 0.260815 3.715671 -4.943923 7.125000 0.000000 0.000000 
